Coordinates
version=1
nRows=20
nColumns=34
inDegrees=yes

Units are S.I. units (second, meters, Newtons, ...)
If the header above contains a line with 'inDegrees', this indicates whether rotational values are in degrees (yes) or radians (no).

endheader
time	pelvis_tilt	pelvis_list	pelvis_rotation	pelvis_tx	pelvis_ty	pelvis_tz	hip_flexion_r	hip_adduction_r	hip_rotation_r	knee_angle_r	ankle_angle_r	subtalar_angle_r	mtp_angle_r	hip_flexion_l	hip_adduction_l	hip_rotation_l	knee_angle_l	ankle_angle_l	subtalar_angle_l	mtp_angle_l	lumbar_extension	lumbar_bending	lumbar_rotation	arm_flex_r	arm_add_r	arm_rot_r	elbow_flex_r	pro_sup_r	arm_flex_l	arm_add_l	arm_rot_l	elbow_flex_l	pro_sup_l
      2.98333330	     -6.50318456	     -5.51819690	      8.17399756	      1.83088667	      0.87088920	     -0.05716665	     22.50743649	     -6.17189394	    -22.10847032	     15.08789854	      1.89815391	     -1.75998526	      0.00000000	     -8.62155973	    -15.36727877	     -6.47837131	      7.09730818	     -1.21690469	      5.28243247	      0.00000000	      0.73515622	     -1.19768236	     -9.74135472	    139.67441258	    -26.20039696	     45.48906531	     81.52760776	     93.98722536	    100.06179866	      5.17970541	     39.14661726	     93.66872160	    101.42807694
      3.00000000	     -6.25794236	     -5.07766850	      7.88808203	      1.84279525	      0.86673636	     -0.05024393	     21.68551475	     -5.75744954	    -22.64439781	     11.40116655	      0.69197100	     -1.44504101	      0.00000000	     -9.56905111	    -15.37360292	     -5.97696870	      6.89214437	     -2.03051005	      4.17171546	      0.00000000	      0.79624147	     -1.62602254	     -9.54256349	    135.98087159	    -28.23206154	     44.86512621	     85.05283148	     94.21739538	     95.36715215	      3.97055603	     40.48191988	     94.33530898	    101.29018294
      3.01666670	     -6.01527110	     -4.82173132	      7.60910916	      1.85489995	      0.86066769	     -0.04316286	     21.08559203	     -5.14717773	    -22.94398261	      9.58297463	     -0.56033544	     -1.40864255	      0.00000000	    -10.50278690	    -15.58905172	     -5.57953387	      6.74899562	     -2.66133354	      2.80290469	      0.00000000	      0.81459240	     -1.76989180	     -9.19623626	    132.82002834	    -30.21542497	     44.37622756	     88.28741404	     94.36059063	     91.04634616	      2.65580588	     41.75200482	     94.79130343	    101.10951426
      3.03333330	     -5.86828118	     -4.72462591	      7.38087113	      1.86730310	      0.85427878	     -0.03634060	     20.77207286	     -4.39230691	    -22.81111638	      9.34348863	     -1.46620839	     -1.72538347	      0.00000000	    -11.18058872	    -15.99620807	     -5.10181343	      6.99794657	     -3.30916349	      0.69606398	      0.00000000	      0.91456669	     -1.83426396	     -8.68461670	    129.52415898	    -32.39332320	     43.35937637	     91.28296422	     94.43955013	     86.98302319	      1.56545073	     43.11778285	     95.02782068	    100.81514807
      3.05000000	     -5.72449763	     -4.78676417	      7.30266645	      1.88094975	      0.84859794	     -0.02989789	     20.52229528	     -3.51682571	    -22.34741515	     10.19992207	     -1.80695703	     -2.28096265	      0.00000000	    -11.77095780	    -16.59852546	     -4.63702048	      7.43180967	     -4.17688082	     -1.68168123	      0.00000000	      1.07376971	     -1.66402028	     -8.28711346	    126.28098723	    -34.59098772	     42.68666833	     94.07527741	     94.47799080	     82.59177876	      0.35357071	     44.55374884	     95.10643621	    100.44896495
      3.06666670	     -5.64666372	     -4.99961420	      7.35256882	      1.89617217	      0.84249807	     -0.02313256	     20.39622261	     -2.59586344	    -21.70241422	     11.77673409	     -1.44946674	     -3.20644617	      0.00000000	    -12.20181897	    -17.36827057	     -4.20132683	      8.01719392	     -5.31876966	     -4.08218320	      0.00000000	      1.41768808	     -1.22595253	     -8.04659094	    122.98268756	    -36.82830105	     42.58464740	     96.91906369	     94.44438564	     77.68644779	     -1.13850199	     45.88809130	     95.33864340	    100.07505248
      3.08333330	     -5.57885358	     -5.29046263	      7.36834490	      1.91237376	      0.83672119	     -0.01514058	     20.29109494	     -1.58920943	    -20.82392428	     13.71059834	     -0.44174783	     -4.68004759	      0.00000000	    -12.44124605	    -18.23961296	     -3.63938001	      9.19518583	     -6.95615246	     -6.81718172	      0.00000000	      1.88963539	     -0.65858661	     -7.95755951	    119.31071314	    -39.00794376	     42.83044190	     99.77285721	     94.33509867	     72.37350809	     -2.99729250	     47.11066982	     95.81140025	     99.68712067
      3.10000000	     -5.56262717	     -5.62058326	      7.32088726	      1.92860554	      0.83346408	     -0.00640311	     20.16305650	     -0.47963662	    -19.65100848	     15.67254408	      0.99969374	     -6.63746355	      0.00000000	    -12.13511574	    -19.14345719	     -2.65906941	     11.40048295	     -9.28479332	    -10.19171535	      0.00000000	      2.44091259	     -0.07190756	     -8.15755391	    114.56273854	    -41.03516041	     42.74635203	    102.79757818	     94.09938704	     66.56561192	     -5.27332699	     48.01708108	     96.36505527	     99.14930877
      3.11666670	     -5.38010110	     -5.74301143	      7.10510590	      1.94469395	      0.83461546	      0.00232309	     19.62348019	      0.54836402	    -18.31909391	     17.39312225	      2.41335597	     -8.70969615	      0.00000000	    -11.22257704	    -19.75457877	     -1.09642373	     15.26397865	    -12.69772438	    -14.21512310	      0.00000000	      2.86688444	      0.26023674	     -8.91891324	    107.14288936	    -41.94591798	     40.75285331	    105.76637917	     93.63553133	     59.94423298	     -8.16139929	     48.37388522	     96.24097189	     98.13808504
      3.13333330	     -5.25054813	     -5.81254256	      6.66483367	      1.96028279	      0.83857021	      0.01065139	     18.85034286	      1.64911546	    -16.91273077	     18.57566407	      3.93036855	    -10.50922508	      0.00000000	     -9.33074302	    -20.12650216	      0.58833268	     20.74235494	    -16.65631100	    -17.75790121	      0.00000000	      3.14990304	      0.57819059	     -9.81651497	     97.90296095	    -42.04885388	     37.35827320	    109.19875258	     93.27799118	     52.06981993	    -10.80526286	     47.28998865	     95.22178246	     97.01850199
      3.15000000	     -5.12662670	     -5.70504889	      6.03063505	      1.97440462	      0.84389074	      0.01878704	     17.59937960	      2.69665843	    -15.48863176	     18.69155287	      5.20765613	    -11.63428149	      0.00000000	     -6.69881504	    -20.10375709	      2.07457368	     27.20747533	    -20.55099761	    -20.30727337	      0.00000000	      3.12423029	      0.71408615	    -10.57111126	     87.23720432	    -41.47575595	     32.38652465	    112.50090580	     93.04504455	     43.59172198	    -12.82691000	     44.31241602	     92.31116108	     95.81451864
      3.16666670	     -4.94768467	     -5.46405217	      5.36609332	      1.98709258	      0.84843597	      0.02644657	     15.98491448	      3.54577171	    -14.35536739	     17.99045114	      6.38419376	    -12.25435423	      0.00000000	     -3.57154912	    -19.74561345	      3.26810804	     34.00895518	    -23.45842487	    -22.07406909	      0.00000000	      2.71411251	      0.83411414	    -10.74859272	     76.77750645	    -40.75244395	     27.60850678	    115.16086062	     92.83429160	     35.05589415	    -12.93613791	     39.23405103	     87.69695180	     94.74837277
      3.18333330	     -4.74002027	     -4.83736544	      4.49925972	      1.99953555	      0.85142161	      0.03450108	     14.09160897	      3.97277577	    -13.24909424	     16.61571259	      7.29540841	    -12.12236383	      0.00000000	     -0.55632971	    -18.87767245	      3.75973069	     40.01169877	    -25.20726768	    -22.46143315	      0.00000000	      2.11962335	      0.43995591	    -10.51580443	     66.13852627	    -39.10860424	     22.87585522	    116.49540110	     92.58830625	     27.26271095	    -12.66256470	     34.24816074	     83.09735287	     93.78861568
      3.20000000	     -4.62696049	     -3.96973666	      3.35528000	      2.01207845	      0.85257272	      0.04224721	     12.35311978	      4.02417481	    -12.16641518	     15.26745089	      8.14615335	    -11.52795250	      0.00000000	      2.38259342	    -17.54902499	      3.80481795	     45.23476844	    -25.44958133	    -21.80181920	      0.00000000	      1.38191218	     -0.36308761	     -9.15124321	     55.27501879	    -37.81573680	     17.63790003	    117.11096357	     92.39719032	     20.68731349	    -12.38325515	     30.56153282	     79.07615200	     92.65361519
      3.21666670	     -4.18325562	     -2.97868392	      2.22085078	      2.02349812	      0.85373744	      0.04840347	     10.31024115	      3.79742408	    -11.17225572	     13.88728013	      8.97176428	    -10.87225142	      0.00000000	      4.98249186	    -15.87896995	      3.68235108	     49.83374140	    -23.64454754	    -20.19095965	      0.00000000	      0.66350619	     -0.97616672	     -8.17069475	     47.20113515	    -34.97659470	     14.97986026	    114.06369096	     92.08500161	     15.35564864	    -12.25888393	     27.26482199	     72.66553160	     91.86710005
      3.23333330	     -3.83872571	     -1.89530726	      1.11347998	      2.03353967	      0.85594188	      0.05315128	      8.43546471	      3.30524219	    -10.31711431	     12.45163477	      9.54323581	    -10.09516090	      0.00000000	      7.61984117	    -13.88756645	      3.35310220	     53.57370413	    -20.72593487	    -17.88548700	      0.00000000	     -0.16725207	     -1.78348220	     -7.12021151	     40.09839480	    -32.07944018	     12.15394731	    110.43872274	     91.68232683	     10.95073690	    -12.07393204	     23.82815810	     65.77304125	     91.08596187
      3.25000000	     -3.64044539	     -0.94637870	      0.05022356	      2.04351675	      0.85755769	      0.05711428	      6.89036280	      2.73879991	     -9.61190733	     11.22504300	      9.82795399	     -9.26506670	      0.00000000	     10.29292948	    -11.74776255	      3.13479811	     56.57559724	    -17.35584002	    -15.31555926	      0.00000000	     -0.73436787	     -2.39399283	     -5.22295843	     32.95494288	    -30.06684001	      8.76266228	    107.80050106	     91.03875427	      7.95193913	    -10.73551256	     20.11293104	     56.97135907	     89.97920186
      3.26666670	     -3.18770928	     -0.21245452	     -0.97578583	      2.05546008	      0.85761519	      0.06247196	      5.11186830	      2.33291057	     -8.84314543	     10.07829326	     10.11403098	     -8.55784167	      0.00000000	     12.46940632	     -9.84081448	      2.85919047	     58.86666804	    -13.83898382	    -12.52390062	      0.00000000	     -1.46479750	     -2.80956480	     -3.67094176	     26.78769019	    -27.43232422	      5.41230460	    104.43003432	     90.35245533	      5.56099067	     -9.83633099	     16.95203244	     48.23434697	     89.05872055
      3.28333330	     -2.59254737	      0.27086041	     -1.91693977	      2.07003749	      0.85699001	      0.06903133	      3.10368154	      2.18751880	     -8.03938107	      9.01755054	     10.65040700	     -7.95058617	      0.00000000	     14.15188646	     -8.31905504	      2.59047574	     60.39203155	    -10.67765397	     -9.95675495	      0.00000000	     -2.19586022	     -3.00846614	     -2.48691558	     20.99010468	    -24.25149162	      1.83714838	    100.62484064	     89.71204484	      2.98576638	     -9.53484875	     13.98846319	     40.79860067	     88.25895637
      3.30000000	     -2.37237273	      0.87094889	     -2.83488168	      2.08433019	      0.85764050	      0.07403693	      1.42868398	      1.85155365	     -7.60096496	      7.90479692	     10.72218637	     -7.17583719	      0.00000000	     15.85105481	     -6.80560300	      1.95048104	     60.95363480	     -8.09734993	     -8.95549670	      0.00000000	     -2.51785898	     -3.52727086	     -0.37081743	     13.94071775	    -21.92930089	     -2.84989088	     98.14188517	     88.77845276	      1.64357870	     -8.82360742	     10.05484570	     31.90301218	     86.97490063
